<svg xmlns="http://www.w3.org/2000/svg" viewBox="0 0 1114.46 594.83"><defs><style>.cls-1{fill:#43240f;}.cls-2{fill:#c13a1e;}</style></defs><title>アセット 1</title><g id="レイヤー_2" data-name="レイヤー 2"><g id="レイヤー_3" data-name="レイヤー 3"><path class="cls-1" d="M286.22.66a9.55,9.55,0,0,1-4,.87c-5.94,0-8.29,1.05-9.78,4-1.3,2.71-1.65,3-5.49,3-2.45,0-4.45.52-5.07,1.22a7.51,7.51,0,0,1-3.66,1.75c-1.4.26-3.67.78-5.15,1-3.14.62-3.31,2-.52,4.63,1.83,1.75,2.53,1.92,4.71,1.13a6.75,6.75,0,0,1,5.32.35c4.54,1.92,11.52,1.57,17.19-1s6.72-2.61,8.29-.78c1.05,1.22.88,1.66-1.22,3.4-4.27,3.32-13,5.85-19,5.59-3.67-.27-5.59,0-5.76.69-.52,1.4,5.93,4.63,9.16,4.63A5.41,5.41,0,0,1,275,32.6c1,1.22.88,1.65-.87,3-2.27,1.92-5.5,2.09-10.91.7-3.14-.79-4.27-1.66-6.54-5.15a25.76,25.76,0,0,1-2.71-4.89c0-.43-1.65-1.48-3.75-2.35s-5-2.19-6.54-2.88c-2.71-1.22-2.88-1.14-3.58.78a4.34,4.34,0,0,1-3.49,2.62c-1.92.44-2.71,1.05-2.71,2.27,0,1.74.79,2.18,6.2,3.05a8.89,8.89,0,0,1,4.27,1.84c.88,1,.62,1.48-1.22,2.35-3.58,1.57-2.53,3.67,2,4,2.88.26,4.54-.18,6.37-1.57,1.66-1.23,3.23-1.75,4.45-1.4,2.88.78,10.21,6.46,10.21,7.85,0,2.27-3.49,2.62-6.19.61a13.13,13.13,0,0,0-2.8-1.83c-.17,0-.26,1.31-.26,3l.09,2.88,10.64,1c6.37.52,11.44.61,12.66.17,1.92-.79,1.92-.79.26-1.4-4.8-1.65-5.76-2.27-5.5-3.75.18-1.13,1.49-1.57,5.06-2A24.17,24.17,0,0,0,292.24,37c1-.79.7-1.05-1.74-1.4-4.63-.7-4.37-3.14.43-5.23,2.19-.88,4-2.1,4-2.62,0-1.14,3.58-1.14,6.46,0,1.92.7,3,.35,7.59-2.62,2.88-1.83,5.67-3.58,6.28-3.84s.53-.7-.52-1.39c-2.79-1.84-.18-4,9-7.51,4.88-1.83,9.07-3.66,9.33-4.1,1.14-1.83-2.79-3.23-8.9-3.23-5.06,0-6.28-.26-7.15-1.66s-2.45-1.74-13.09-2.09c-6.64-.26-13-.7-14.23-1A4.56,4.56,0,0,0,286.22.66Z"/><path class="cls-1" d="M403.94,2c-2.27,2.62-3.66,2.79-8.2.87a11.52,11.52,0,0,0-6.28-.78c-3.14.52-3.58,1.39-1.57,3.05,1.83,1.57,1.65,3.23-.61,4.45-1.31.7-4.63.87-10.48.44-8.55-.53-8.55-.53-9.6,1.66-1,2.35-3.22,2.79-4.88,1.13-.88-.87-1.49-.87-2.79,0a19.61,19.61,0,0,1-6.9,1.05c-4.71,0-5.23.17-5.5,1.92-.35,2.44-4.8,3.4-5.58,1.22-.7-1.92-2.1-1.75-2.1.17,0,2.45-2.53,4.19-7.85,5.41a63.64,63.64,0,0,0-7.42,2.19L321.56,26h4.19c3.23.09,4.1.43,4.1,1.48,0,2.53-3.4,7.07-5.93,7.94-5.41,2-8.73,2.88-10.38,2.88a16.2,16.2,0,0,0-4.63,1.05c-2.62.87-2.79,1-1.22,1.66a22,22,0,0,0,5.85.7c9.68.17,10.38,4.62,1,6.63L312,49l2.53,2.09c1.74,1.57,3.14,2.1,4.8,1.66,3.49-.7,24.78-2,25.83-1.57.87.35,6.72,8.38,11.43,15.45a20.31,20.31,0,0,1,2.7,5.93c.44,2.18.7,2.36,1.31,1.22,1.14-2,3.06-1.74,4.71.79,1.31,2,1.31,4.27,0,7.42-.34.87.35,1.83,2.1,2.79,3,1.66,3.58,5,1.31,6.8-1,.79-1.14,1.4-.44,2.1,1.14,1.13,1.14,4,0,4-.52,0-.52.61.18,1.66.78,1.31.52,2.36-1.31,5.76a32.61,32.61,0,0,0-2.36,4.54,5.34,5.34,0,0,0,2.18,1.13c1.75.7,2.18,1.4,2.18,3.84,0,2.27,1.05,4.45,4.19,8.55,3.41,4.54,4.8,5.76,8.38,6.9,2.36.78,4.8,2.09,5.41,3,1,1.39,1.31,1.3,3.75-.53,2.19-1.57,2.71-2.62,2.71-5.32,0-7.24,9.25-19.9,15.62-21.29,6.89-1.57,8.11-2.27,9.77-6,1-2.18,2.71-4.36,4.1-5.06s3.58-1.92,5-2.7c1.74-.87,4.8-1.4,8.9-1.4a36.29,36.29,0,0,0,11.78-1.83c7.42-2.53,8.12-3.4,2.71-3.4-5.94,0-7.25-1.49-4.45-5.41a26.13,26.13,0,0,1,2.88-3.5c1.91-1.39,5.23-.61,7.15,1.66,1.48,1.84,1.92,2.1,2,1,0-2.44-4.19-5.06-8.38-5.06-3.84,0-5.32-1-4.89-3.58A2.87,2.87,0,0,0,444.61,68a4.18,4.18,0,0,1-1.31-2.7c0-1.31.7-1.66,3.4-1.66s3.58-.35,4-1.75c.7-2.26,4.36-2.26,8.11,0,3.14,1.92,4,2.19,3.23.88-.87-1.49,1.31-3.49,3.67-3.49,3,0,2.18-1.84-1.84-3.84-2.61-1.23-3.22-2-2.79-3.41a2.93,2.93,0,0,0-1-3c-1.4-1-1.31-1.23.61-2.88a7,7,0,0,1,3.66-1.75c1.4,0,1.48-.17.26-2.44-2-3.93-1.57-6.9,1.31-8.38C469,32,470,29,467.65,28.3a2.49,2.49,0,0,1-.09-4.63,25.06,25.06,0,0,1,5.67-1.39,15.49,15.49,0,0,0,6.37-2.19,13,13,0,0,1,4.71-2.26c4.54-1,3-2.36-1.91-1.84-2.54.26-8.12.79-12.48,1.22a64,64,0,0,0-9.34,1.4c-1,.44-1.83.09-2.62-1.13-1-1.57-2-1.84-7.68-1.84-5.23,0-8.29.61-15.27,3.06-10,3.49-13.53,3.84-13.53,1.39,0-2.79,16.58-9.42,26.18-10.29l5.68-.53-2.8-1.22c-1.57-.61-2.88-1.74-2.88-2.44,0-1.75-4.71-1.75-17.8.09-8.11,1.13-10.47,1.13-11.52.34-1.13-1-1.13-1.3.18-2.7.87-1,1.31-1.83,1.13-2s-3.4-.7-7.07-1C406.21-.24,405.86-.24,403.94,2Zm42.33,74.11a1.52,1.52,0,0,1-.88,1.92c-1.65.61-3.4-1-2.61-2.27A2,2,0,0,1,446.27,76.14Z"/><path class="cls-1" d="M707.71,16.36c0,.44.62.88,1.31.88s1.31-.44,1.31-.88-.61-.87-1.31-.87S707.71,15.84,707.71,16.36Z"/><path class="cls-1" d="M808.94,17.24a1,1,0,0,0,1,.87c.44,0,.61-.44.35-.87s-.7-.88-1-.88S808.94,16.71,808.94,17.24Z"/><path class="cls-1" d="M698.55,18.11c-.26.44.26.87,1.22.87a3,3,0,0,0,2.27-.87c.26-.52-.26-.87-1.22-.87A2.76,2.76,0,0,0,698.55,18.11Z"/><path class="cls-1" d="M727.35,19.86c-.26.43-.09.87.35.87a1,1,0,0,0,1-.87c0-.53-.18-.88-.35-.88S727.61,19.33,727.35,19.86Z"/><path class="cls-1" d="M818.8,20.47c-1.13.69-2,1.65-2,2.09,0,.87,7.85,1.05,10,.26,1.22-.52,1.22-.7-.08-2.18C824.91,18.63,821.42,18.55,818.8,20.47Z"/><path class="cls-1" d="M672.11,20.9c-.78.79-.7,1.4.44,2.62,1.48,1.66,4.27,2.27,3.31.7a3.47,3.47,0,0,1,.44-2.62c.78-1.48.7-1.74-1.14-1.74A5,5,0,0,0,672.11,20.9Z"/><path class="cls-1" d="M682.58,21c-.61.7-.52,1.57.26,2.7,1.14,1.49,1.31,1.49,3.23.18,2.45-1.75,5-1.83,5.59-.09.61,1.49,3.49,1.75,4.36.35,1-1.57-1.13-2.88-4.8-2.88-1.92-.09-3.75-.35-4.1-.78C686.16,19.51,683.63,19.77,682.58,21Z"/><path class="cls-1" d="M716.44,21.16c-1.74,2.1-.52,2.45,1.31.44.87-1,1.13-1.74.7-1.74A3.6,3.6,0,0,0,716.44,21.16Z"/><path class="cls-1" d="M705.27,22.3c.35,1.83,3.32,2.53,3.32.78,0-.69-.79-1.48-1.84-1.74C705.45,21,705.1,21.25,705.27,22.3Z"/><path class="cls-1" d="M698.55,24.22c-.26.43.09.87.79.87a2.47,2.47,0,0,0,1.83-.87c.26-.53-.09-.87-.79-.87A2.18,2.18,0,0,0,698.55,24.22Z"/><path class="cls-1" d="M597.93,26.84c-1.57,2.09-1.65,2.53-.52,3,2.71,1.05,6.81.44,9.77-1.39s3.06-1.92,1-2.45C601.34,24.13,599.77,24.31,597.93,26.84Z"/><path class="cls-1" d="M588.16,26.92c0,1.31.61,1.66,3.14,1.66,3.84,0,3.67-1.92-.35-2.7C588.6,25.44,588.16,25.61,588.16,26.92Z"/><path class="cls-1" d="M628.3,26c0,.44.61.88,1.4.88s1-.44.78-.88a1.66,1.66,0,0,0-1.39-.87A.81.81,0,0,0,628.3,26Z"/><path class="cls-1" d="M814.88,26.57a1.76,1.76,0,0,0,1.66-.08c.34-.26-.18-.53-1.14-.44S814.18,26.31,814.88,26.57Z"/><path class="cls-1" d="M821.68,27.19c-5,1.39-4.8,2.79.53,4a53.14,53.14,0,0,1,7.41,2.36c4.72,1.92,5.5,1.57,5.5-2.36S834.69,27,832,29.54l-1.92,1.83-1.48-2.18C826.75,26.31,825.79,26.05,821.68,27.19Z"/><path class="cls-1" d="M568,27.88a10.32,10.32,0,0,0-.35,2,17.14,17.14,0,0,1-.87,3.23c-.44,1.13,0,1.83,1.75,2.62,1.92.87,2.7.78,4.8-.44,4.88-3,9.77-.87,6,2.53-1.14,1.05-1.4,1.83-.79,2.45,1.22,1.22,1.14,1.92-.52,3.57-1.14,1-1.22,1.66-.35,2.62,1.83,2.27,3.23,1.48,5.93-3.4,1.49-2.53,3.67-5.5,5-6.46l2.27-1.75-2-1.39a7.42,7.42,0,0,0-3.58-1.4,10.08,10.08,0,0,1-4.1-1.83l-2.44-1.92L576,30.24c-3.4,2.44-6.63,2.18-6.54-.61C569.49,28.15,568.53,26.92,568,27.88Z"/><path class="cls-1" d="M204.11,32.42a8.79,8.79,0,0,0,3.75,1.75A16.3,16.3,0,0,1,213.53,37c3.32,2.53,4.89,2.18,2.53-.44C212.92,33,201.31,29.11,204.11,32.42Z"/><path class="cls-1" d="M842,34.78c-3.84,4.1-3.32,4.19,8.29,1,1.65-.43,1.65-.52-.26-2.09C847.17,31.37,844.9,31.64,842,34.78Z"/><path class="cls-1" d="M185,38.18a.94.94,0,0,0,.88.87.87.87,0,0,0,.87-.87.82.82,0,0,0-.87-.87A.88.88,0,0,0,185,38.18Z"/><path class="cls-1" d="M596.89,40.8c0,.44.78.87,1.83.87s1.48-.43,1.22-.87a2.19,2.19,0,0,0-1.83-.87C597.41,39.93,596.89,40.28,596.89,40.8Z"/><path class="cls-1" d="M180.63,41.67c-.7.44-1,1-.78,1.22s1.22-.08,2.18-.78C183.86,40.71,182.73,40.36,180.63,41.67Z"/><path class="cls-2" d="M846.42,44.09a10.73,10.73,0,0,0-1.66,4.63c-.26,2.88-.43,3.05-3.75,3.31a47.68,47.68,0,0,0-7.68,1.57,14.88,14.88,0,0,1-7,.88c-1.57-.35-6.55.08-11.08.87-19.81,3.4-20.42,3.58-18.5,6.2,3.23,4.62,1.92,6.37-3.93,5.41a71.87,71.87,0,0,0-8.73-.7c-4-.09-4.62.17-4.62,1.57,0,1,1.31,2.44,3,3.49,5.76,3.4,7.68,12.3,2.62,12.3-1.66,0-2.27-.61-2.7-2.44-.88-4.19-1.14-4.45-4.37-5.85-5.41-2.27-11-1.31-7.76,1.31a4.21,4.21,0,0,1,1.3,2.71c0,1.31-.61,1.66-2.79,1.66-2,0-3.49-.88-6-3.5A22.75,22.75,0,0,0,759.07,74c-.26,0-.87.79-1.4,1.66-.61,1.22-.52,3.06.18,6.11.87,4.1,1.13,4.36,4.62,5.24,3.75,1,9.16,5.84,9.16,8.29a3.64,3.64,0,0,0,1.31,2.27c3.14,2.61-.08,5.32-3.57,3A13.59,13.59,0,0,1,765.7,96c-2.09-4.54-3.67-4.46-6.46.52-3.31,5.93-7.42,9.77-10.47,9.77s-7.24-2.09-7.94-3.84c-.87-2.18,2.53-3.49,5.67-2.18,2.18.87,2.71.87,3.4-.17,1.58-2.62,2.71-10.82,2.1-15.62-.35-2.62-.7-7-.79-9.6l-.08-4.8-3.06-.26c-2.79-.27-3.31.08-5,3A27.55,27.55,0,0,1,739,78.3a10,10,0,0,0-2.27,2.79c0,.35,1.57,2.53,3.58,4.8,3.66,4.19,4,6,1.48,7.68-1.22.7-2.62.35-6.37-1.57a30.31,30.31,0,0,0-9.86-2.88c-4.63-.44-5.15-.26-7.94,2.27-3.23,2.88-5.24,3.32-7.77,1.75-1.22-.79-2.36-.62-5.24.87-4.36,2.18-7.68,2.35-8.72.35-.79-1.31-1-1.31-4.45,0a18.21,18.21,0,0,1-5.24,1.48c-.87,0-3.75,1.57-6.54,3.49-5.5,3.84-8.21,4.36-10.48,1.83-1.3-1.39-1.3-1.74-.17-2.88,1.4-1.48.35-3.31-1.83-3.31-1,0-1,1-.61,4.36.69,5.32-.44,7-4.63,7-4,0-5.85,1-8,4.89-1.66,2.7-2.27,3.14-4.45,2.79-2-.35-2.62,0-2.79,1.4-.44,2.88-5.06,2.88-8.38.09a12.33,12.33,0,0,1-3.31-4.19,17.55,17.55,0,0,0-2.71-4.8c-2.18-2.88-2.18-5.41-.09-5.41a46.62,46.62,0,0,1,6.72,1.74c6.46,2,12.22,1.66,14.49-.87,1.31-1.48,1.22-1.75-1.48-3.75a56.93,56.93,0,0,0-9-5c-3.41-1.48-7.25-3.31-8.55-4A24.69,24.69,0,0,0,626.51,88c-6,0-8.11-.88-7.33-3s-2-3.14-6.72-2.79c-2.27.17-4.27-.09-4.54-.44-.78-1.4-3.4-.87-5,1a5.73,5.73,0,0,1-4,1.75,5,5,0,0,0-3.5,1.22c-.52.61-3.57,1.92-6.63,2.79-4.88,1.4-5.67,1.92-5.67,3.67,0,1.3-1,2.53-3,3.75-1.66,1-3.06,2.35-3.06,2.88s-1.92,2.35-4.36,3.92-4.36,3.41-4.36,4.11-1,1.74-2.36,2.26-2.62,1.14-2.71,1.23.09,1.57.7,3.31c.7,2.18.7,3.58,0,4.8-1.31,2.62-4,3.84-5.93,2.79-1.4-.69-2.53-.08-6.2,3.32l-4.62,4.28.78,6.8c.7,6.9.7,6.9,3.32,7.16,1.92.17,3.75-.52,6.37-2.44a29.38,29.38,0,0,1,4.1-2.62c.7,0,4.45,8,6.11,12.91,1.66,5.15,1.48,5.06,8.55,2.62,2.88-1,3.23-1.48,3.23-4a9.37,9.37,0,0,1,3.66-7.86c1.92-1.39,2-4.36.27-6.63-3.32-4.45-.61-12.3,5.58-16.06,3.23-2,4.37-3.31,5.15-6.1a10.62,10.62,0,0,1,3.05-5c4.54-3.14,11.61-.09,9.6,4.19a47.49,47.49,0,0,1-5.67,7.07c-4.36,4.89-4.62,5.5-4.45,9.51.18,6.37,1.4,7.16,7.86,5.5,7.33-1.92,12.65-1.83,15.18.26,1.92,1.57,2,1.83.61,3.23-1,1-3.75,1.66-8.55,2.18-4,.35-7.68,1.14-8.12,1.57-.7.7-.52,1.83.44,3.93,2.44,5-.26,9.25-3.75,6.11-2.45-2.18-4.28-1-4.28,3.05,0,5.5-5.85,10.56-10,8.64-1.48-.7-3.14-.26-7.94,1.92-5.93,2.71-6,2.71-7.41,1-1.14-1.4-2.1-1.57-5.07-1.22s-4,.17-5.75-1.48l-2.19-2v2.09c0,2.62-1.48,4.28-3.75,4.28-3.58,0-9.77,3.49-11.08,6.37a9.23,9.23,0,0,1-3.93,4,39.68,39.68,0,0,0-6.37,4.54c-2.09,1.83-5,3.58-6.37,3.84a5.49,5.49,0,0,0-3.4,2.27,3.86,3.86,0,0,1-3.58,1.66h-2.62l3.06,3c5.67,5.33,7.41,13,3.92,17.46l-1.83,2.35-9.95-.61-9.95-.61v5a45.11,45.11,0,0,1-1,8.9c-1.31,5.23-.17,7.76,4.45,9.6,1.92.78,3.49,1.74,3.49,2.18,0,1.22,2.45,1,8.21-1.05,5.93-2.09,9.25-5.06,9.25-8.29,0-2.27,2-4.54,6.89-7.59a10.87,10.87,0,0,0,4.1-5.32c1.4-4.19,2.36-4.89,7.33-4.89a14.69,14.69,0,0,0,6.11-1.31c4.45-2.53,6.55-1.75,12.83,4.89,3.32,3.4,7.07,6.8,8.55,7.5a36.44,36.44,0,0,1,4.63,3.14c1.74,1.57,2.09,1.66,2.79.61,1.31-2,1.13-2.27-3.49-5.58-4.1-3-6.63-6.11-9.86-12.48-1.4-2.71-1.4-2.88.52-5.15,1.75-2,2.18-2.09,3.32-1.13.7.69,5.06,4.71,9.86,9.07,6.72,6.11,9.07,8.9,10.73,12.57,2.71,6.19,4.19,7.76,6.63,7.33,1.66-.35,2-.87,1.75-2.71-.26-2,.17-2.61,2.79-3.92a19.73,19.73,0,0,1,6.81-1.49c4.71,0,5.85-1.13,5.85-6,0-6.63,6.89-17.19,12.3-18.85,2.53-.78,6.28,1.83,5.59,3.93-.35,1.13.08,1.92,1.3,2.62,2.36,1.31,3.06.7,1.84-1.57-.79-1.49-.61-2.1,1.31-3.58,2.44-1.92,7.41-3.23,9.51-2.36,1.57.53,1.74,3.41.35,5.94-.79,1.57-.18,2.44,5.23,7.59,3.41,3.14,6.2,6.46,6.2,7.24a6,6,0,0,1-1.92,3.32c-2.53,2.35-9.51,2.35-16-.09a19.15,19.15,0,0,0-8.12-1.4c-4.62.61-11.69,3.23-13.78,5.07a6.07,6.07,0,0,1-3.67,1.65c-1.57,0-1.92.53-1.92,3,0,4.63,1.57,8.12,4.19,9.16,1.31.44,6.89.79,12.65.61,12.22-.26,12.13-.34,9.43,10.13-3.23,12.65-6.37,16.49-11.87,14.66a19.05,19.05,0,0,0-7.24-.35c-3.67.44-5.94,0-14.05-2.71-5.33-1.74-10.39-3-11.35-2.61a5.91,5.91,0,0,0-2.7,3c-2.62,6.28-5.24,6.46-14.93.79-3.22-1.84-7.85-4.28-10.12-5.24-6.8-2.88-7.5-3.84-6.8-9.6.69-5.93-.88-8.29-5-7.42-1.31.26-5.67.7-9.69,1a81.77,81.77,0,0,0-17.19,3.58c-7.5,2.27-11.08,3-14.13,2.7-3.76-.43-4.28-.17-5.59,1.84a39.64,39.64,0,0,1-5.23,5.84c-3.32,3.14-3.84,4.1-3.84,7.25a16.7,16.7,0,0,1-6.64,12.82,38.38,38.38,0,0,0-6.63,7.68,70.57,70.57,0,0,1-5.85,7.77c-2.18,2.36-2.26,2.88-2.79,16.58-.26,9-.87,15-1.66,16.49-1.13,2.36-.87,2.88,5.07,11.52,3.4,5,6.54,10.56,7.06,12.48,1,3.4,4.89,7.77,10.3,11.52,2.71,1.83,3.4,1.92,12.65,1.31A89.7,89.7,0,0,0,528,356.24c9.77-2.88,11.6-2.7,15.53,1,2.71,2.62,3.84,3.06,7.33,3.06,6.46,0,7,1,7,14.48v11.35l3.49,4.62a29.08,29.08,0,0,1,4.11,7,27.45,27.45,0,0,0,2.53,5.94,29,29,0,0,1,2.53,10c.43,5.5.26,7.24-1.75,12.83-3.58,10.12-3.66,13.35-.52,21.21a96.15,96.15,0,0,1,4,14.83c1.75,10,3.58,15.62,8.73,26,4.1,8.46,4.71,11.08,2.88,13-1,.87-.7,1.39,1,2.7,2.61,2.1,5.06,2.1,15.53.44,10.65-1.75,14.14-3.58,19.11-10.3,4.8-6.54,7-11.08,8.12-17.36.69-3.76,1.48-5.24,4.18-7.68,1.92-1.66,3.67-3.76,3.93-4.63s.09-4.45-.43-8l-1.05-6.54,2.62-2.71a71.58,71.58,0,0,1,7.15-6.19c7.24-5.41,8.2-7.51,7.77-16.84-.18-4.37-.79-8.73-1.31-9.78-1.92-3.58-3.67-14.57-2.79-17.54,1.83-6.72,7.33-14.66,15.27-22.43,8.55-8.29,11.6-12.47,16-21,3-6,6.63-16.05,5.93-16.66-.26-.27-4.1.26-8.64,1-7.07,1.4-8.46,1.4-10.64.35s-8.38-9.16-15.89-20.68a71.3,71.3,0,0,0-4.8-6.63c-1.74-2.18-2.53-4.19-3-8-.53-5.94-4.45-15.71-9.25-23.74-4.1-6.72-5.06-10.38-3-11.17a3.2,3.2,0,0,1,2.53.35,3.91,3.91,0,0,0,3.06.53c1.48-.44,2.35.26,4.45,3.57a46.46,46.46,0,0,1,4.1,8.64,20.41,20.41,0,0,0,3.92,6.72,10.21,10.21,0,0,1,3,5.67c1.05,6.2,2.1,8.64,6.11,13.44,2.88,3.58,4.1,5.94,4.8,9.6.52,2.62,1.22,6.2,1.57,7.86.44,2.27,1.13,3.14,2.53,3.31,1.05.18,8.29-3,16.93-7.33,13.44-6.8,15.8-8.29,21-13.61,3.23-3.32,5.94-6.63,5.94-7.33a7.79,7.79,0,0,1,1.39-3.32c1.31-2.09,1.22-2.18-2.62-4.8a22.75,22.75,0,0,1-5.49-5.32l-1.49-2.62-2.27,2.18c-2.79,2.71-8.37,5.06-10.47,4.37a5.28,5.28,0,0,1-2.53-2.88c-.52-1.31-3.14-6.29-5.67-11.09s-4.8-9-4.8-9.33.87-1.31,2.09-2.1c3.23-2.09,5.94-1,9.6,4,3.93,5.32,7.42,7.33,12.74,7.15,3.49-.09,4.45.35,6.29,2.45,2.61,2.88,4.27,3.22,17.45,4.27,8.9.61,9.6.87,12.22,3.4a24.84,24.84,0,0,0,6.11,4.11c3.75,1.57,4.8,3.31,3.22,5.23-.87,1.05-.78,1.4.53,1.92,1,.35,1.92,0,2.79-1.31a4.24,4.24,0,0,1,2.44-1.92c1.4,0,1.84,1.75,2.53,10.74C754.18,311,757,322,758.54,324a22.49,22.49,0,0,1,1.75,4.36c1.66,5.15,7.07,16.15,8,16.15,1.74,0,4.27-8.12,5.06-16.32s.87-8.64,3.66-11.08a187.61,187.61,0,0,0,15.71-15.28c4-4.45,5.67-5.58,9.51-6.71,8.38-2.45,8.29-2.45,13.53,5.23,4.28,6.2,4.71,7.33,4.71,11.52,0,5.32,1.14,6,5,3,4-3.14,4.27-2.71,7.33,11.08l2,8.9,1.58-2.62c1.3-2.09,2.09-2.53,4.88-2.53,3.32,0,7.16,1.92,7.16,3.58,0,.52,1.13,2.36,2.53,4.1a16.37,16.37,0,0,1,2.88,4.89c.17,1.39,1.13.87,5.76-3.06l5.5-4.62-.62-5.24c-.69-7.59-1.65-10-6-16.23-2.18-3.05-3.92-6.37-3.92-7.33,0-2.09,6.72-9.25,8.72-9.25a3.82,3.82,0,0,1,2.36,1c.7.7,1.48.61,3-.35a52.53,52.53,0,0,1,8.2-3.23c12-3.66,15.79-6.63,21.47-16.58,1.22-2.18,3-5.15,3.92-6.72,1.57-2.7,1.57-2.79,0-4.53-1.31-1.49-1.39-2-.52-3.15s.79-1.39-.35-1.83q-2.61-1,0-3.93c1.22-1.3,1.05-1.83-1.31-5.84-3.4-5.5-3.4-7.25.26-11l3-3-3.49-.53c-4.36-.7-6.54-1.83-7.68-4-.78-1.4-.35-2.27,2.1-5.06,5.14-5.68,12.74-8,12.74-3.84,0,1.31.52,1.48,3.05,1.22,4.36-.53,7.77,1.83,7.16,4.88-.35,1.75.08,3,1.74,4.72a10.12,10.12,0,0,1,2.62,6.28,14.39,14.39,0,0,0,.78,4,13.48,13.48,0,0,0,2.54-1c2.79-1.22,2.79-3.23,0-10.3a33.78,33.78,0,0,1-2.19-7c0-.87,3.15-4.89,7.07-9.08,7-7.41,7.07-7.5,10.47-7,3.23.53,3.67.35,7.07-3.23C952.1,202.3,958.73,191.92,961,186a58.47,58.47,0,0,0,2.36-11.52c.43-5.85.26-6.81-1.23-8.12-1.3-1.22-2.26-1.4-4.62-.7s-3.4.53-6.63-1.57c-2.36-1.48-3.75-3.05-3.84-4.1s2.27-3.84,5.5-6.81c12-11.34,21.55-17.27,25-15.44,2.27,1.13,9.08,1.13,11.78-.09,1.75-.78,3.32-.7,7.33.44,6.72,1.83,7.95,1.74,8.82-.61,1.66-4.37,11.69-11.09,16.49-11.09,3,0,4.8,1.75,4,3.84-.88,2.36,5.32-1.65,6.45-4.19s4.28-3.75,5.59-2.44c1.66,1.66-1,6.28-5.76,9.95-2.44,1.92-8,6.89-12.39,11.08-7.94,7.42-8,7.59-8.64,12.57-.61,4.45.61,14.4,1.92,16.58.7,1.13,7.76-6.63,8.46-9.25a6.9,6.9,0,0,1,3.14-3.93,6,6,0,0,0,3.06-4.27,5.93,5.93,0,0,1,1.83-3.58c1.05-.61,1.14-1.4.35-5.15-.79-3.4-.7-5,.09-6.55,1.57-3.14,4.45-5.93,6-5.93a6.52,6.52,0,0,0,3-1.22c2.71-1.83,10.74-2.71,13.27-1.31,1.92,1,2.62.87,6.19-1.22,7.77-4.63,13.7-7.07,18.33-7.42,2.44-.26,4.54-.79,4.54-1.22,0-2-2.88-6-5.24-7.24-2.7-1.4-3.58-4.37-1.48-5.07a13.46,13.46,0,0,1,4.45.44c3.93.87,5.32.09,6.11-3.66.61-3.06,3.4-3.58,4.88-.88.7,1.31,1.31,1.57,2.88,1s3.14-.08,7.6,2.71l5.49,3.49,2.18-2.79a11.35,11.35,0,0,1,4.19-3.49c3.15-1.23,2.53-2.54-1.92-4.54l-4.1-1.75-1.92,2.45-1.92,2.44-1.22-2.18c-.7-1.14-1.66-2.88-2.18-3.84-2.71-5.15-15.45-10.3-30.11-12.31a87.31,87.31,0,0,1-10.73-1.74c-1.14-.44-1.4.08-1.4,2.62,0,4.27-1.39,4.62-8.37,2.35a39.54,39.54,0,0,0-13.09-1.83c-8.73,0-12.92-1.4-13.79-4.63-.7-2.88-3.32-3.4-13.09-2.7-7.42.52-8.21.35-12.48-1.75-2.44-1.31-4.8-3-5.06-4-.7-2.27-3.49-2.27-8.38-.09-4.28,1.92-5.5,1.66-4.89-1.31.35-2,.18-2.09-5.15-2.27-3.05-.08-6.28-.17-7.06-.17-1-.09-1.75.87-2.19,2.7-1.22,4.63-2,4.8-16.58,4.37-6.72-.26-7.76-.09-8.11,1.22-.7,2.09-3.41,2.88-5.85,1.57-3.23-1.74-8.46-6.11-9.95-8.46-1.39-2.1-1.31-2.27.61-3.76,1.75-1.39,1.92-1.74.79-2.53-2-1.31-9.25-1-12.83.44-3.84,1.66-13.26,1.74-15.53.09-2.88-1.92-6.29-2.36-10.65-1.4-4.1,1-4.8.79-10-1.83-2.54-1.31-4.11-1-3.58.78.26,1.31-.44,1.92-3.41,3.06C860.91,71.06,852.88,69.49,857,66c3.49-2.88,11.17-7.25,15.36-8.56,3.93-1.31,4.45-1.74,4.71-4.1.35-3.75-3-5-11.08-4.19-4.89.44-7,.27-10.12-1-3.5-1.31-4-1.83-3.67-3.57s0-2-2-2A6.08,6.08,0,0,0,846.42,44.09ZM628.65,130.86c2.53,3.49,1.83,5.06-2.09,5.06-3.06,0-3.67-.35-4.45-2.36-1.22-3.23-.44-4.62,2.62-4.62A4.57,4.57,0,0,1,628.65,130.86ZM692,197.44c1.57,1.83.7,4.19-2,5.5a7.81,7.81,0,0,0-3.32,3.4c-.69,1.83-.43,2.71,1.4,5.15a10,10,0,0,1,2.18,4.54c0,2.27,1,3,2.36,1.83.87-.78,1.48-.7,2.44.09,1.66,1.39,1.75,4.36.09,4.36-1.83,0-2.62,1.66-1.48,3,1.57,1.92,2.26,9.86,1,11.43-2.8,3.32-11,2.27-13.71-1.92-1.3-1.92-1.22-2.53.18-7.24,1.48-5.06,1.48-5.15-.26-7.42-2.62-3.32-5.76-13.61-5.06-16.41C676.91,198.92,689.3,194.12,692,197.44Zm24.26,5.76c.35,3.84-2.53,7-4.89,5.5-2.09-1.4-2.18-3.06-.17-6.29C713.56,198.57,715.92,198.92,716.27,203.2Z"/><path class="cls-1" d="M162.83,46c-1.31.52-1.4.87-.61,1.31a2.08,2.08,0,0,0,2.53-.7C166.23,45.07,165.53,44.9,162.83,46Z"/><path class="cls-1" d="M155.15,49.53c-2.53,2.26-2.71,2.53-1.05,2.61,1,0,2.88-1.22,4.28-2.61C161.78,46,159.08,46,155.15,49.53Z"/><path class="cls-1" d="M232.55,49.09c.53.17,2.53.78,4.54,1.31A7.53,7.53,0,0,1,242.33,54c1.31,2.35,2.53,3,8,4.36s8.29,1.57,17.36,1c8-.35,10.91-.88,11.26-1.75.26-.7.35-1.31.17-1.48s-4.88.08-10.38.52a132.12,132.12,0,0,1-15.27.18c-4.37-.53-5.67-1-7.94-3.41a12.48,12.48,0,0,0-7.25-3.84C234,48.74,230.63,48.39,232.55,49.09Z"/><path class="cls-1" d="M733.46,50.4c-1.14.52-1.31.78-.44.78a6.11,6.11,0,0,0,2.62-.78C737.21,49.35,735.81,49.35,733.46,50.4Z"/><path class="cls-1" d="M191.1,51.79c0,2.62-3,5.07-5.41,4.45a68.08,68.08,0,0,1-7-2.26c-6.28-2.36-9.69-2.45-9.25-.35.26,1.22,1,1.48,3.58,1.31,4-.35,6.72,1,6.72,3.4,0,1.31.43,1.66,1.57,1.31.78-.26,4.62-1.31,8.38-2.27,6.89-1.75,9.07-2.62,6.45-2.62-.78,0-2.26-1-3.22-2.44C191.28,50.14,191.19,50.14,191.1,51.79Z"/><path class="cls-1" d="M218,53c-.35,2.61.52,3.57,2.62,2.79,1.31-.44,1.39-3,0-4.36C218.94,49.79,218.42,50.14,218,53Z"/><path class="cls-1" d="M716.88,53.54c-2.36.7-6.46,1.74-8.9,2.27-2.62.61-4.63,1.57-4.63,2.18s-1.22,2.53-2.79,4.28c-2.53,2.88-2.71,3.22-1.31,4.27,2.09,1.57,1.83,2-1.31,2.36a6.43,6.43,0,0,0-4.45,2.62l-1.74,2.27,3.14,3.14c1.74,1.74,3.92,3.14,5,3.14,2.1,0,2.18-.35.35-3.06-2.18-3.31-.87-6.19,5.93-13.26,5.24-5.32,7-6.63,11.09-7.77,2.7-.78,6.45-1.92,8.37-2.61l3.49-1-3.92-.09A36.16,36.16,0,0,0,716.88,53.54Z"/><path class="cls-1" d="M956.77,53.45c-1,2.53.35,4.19,3,3.49a24.51,24.51,0,0,1,5.23-.61c1.75,0,2.8-.35,2.8-1.13s-1-1.14-2.45-1.14a8.74,8.74,0,0,1-4.27-1C958.52,51.79,957.38,51.88,956.77,53.45Z"/><path class="cls-1" d="M972.57,53.89a2.47,2.47,0,0,0,1.83.87c.7,0,1.22-.44,1.22-.87s-.79-.87-1.83-.87S972.3,53.37,972.57,53.89Z"/><path class="cls-1" d="M231.68,57.38a2.45,2.45,0,0,0,1.83.87c.7,0,1.23-.43,1.23-.87s-.79-.87-1.84-.87S231.42,56.86,231.68,57.38Z"/><path class="cls-1" d="M874,60.87a2.43,2.43,0,0,0,1.83.87c.7,0,1.05-.43.78-.87a2.19,2.19,0,0,0-1.83-.87C874,60,873.69,60.35,874,60.87Z"/><path class="cls-1" d="M149.48,62.79c-1.49.7-2,1.75-2,3.66a9.31,9.31,0,0,1-1.4,4.72c-1.31,1.83-1.22,2.09.7,3.66,2.62,2.18,4.28,2.18,7.07,0a9.43,9.43,0,0,1,2.79-1.74,12.59,12.59,0,0,0,3.58-2.62,17.11,17.11,0,0,1,5.15-3.14c4.54-1.14,1.83-3.41-4.8-4.19-2.62-.26-5.76-.7-7-1A8.1,8.1,0,0,0,149.48,62.79Z"/><path class="cls-1" d="M238.49,64.1c-2.79.52-4,2.44-3.32,5.5.61,2.7,2.18,3.66,2.18,1.31,0-.7,1.57-2.27,3.49-3.5C246.08,64.1,245.12,62.79,238.49,64.1Z"/><path class="cls-1" d="M965.32,64.54a3.36,3.36,0,0,0,2.53,1.39c2.1.35,2.1.26.35-1.05C966.11,63.23,964.89,63.14,965.32,64.54Z"/><path class="cls-1" d="M221,65.76c-1.92.87-2.8,1.74-2.53,2.53a2.2,2.2,0,0,1-.7,2.18c-1.57,1.31-1.05,2.27,2.35,4.36,2.1,1.22,3.15,1.4,5.15.7,2.88-1,3.06-1.66,1.14-4.62a5.75,5.75,0,0,1-.87-4.37C226.1,64,225.31,63.84,221,65.76Z"/><path class="cls-1" d="M279.24,66.89c0,1.4,1.48,1.83,4.36,1.31,1.92-.44,2.45-.79,1.57-1.31C283.6,65.84,279.24,65.93,279.24,66.89Z"/><path class="cls-1" d="M253.32,69.25c-2.09,1.66-2.88,3-2.88,4.88,0,2.53,3,8.56,4.19,8.56C282,84.26,282.3,84.34,290.15,87c5.41,1.75,8.2,3.23,9.16,4.63a10.82,10.82,0,0,0,2.36,2.7,9.3,9.3,0,0,1,2,3.58c.78,2.53,1.48,3,3.75,3.32,3.23.35,4.27,3,1.92,4.71-1.22.87-2,.87-4.45-.26-3.41-1.66-5.33-.7-5.76,3-.26,2.1-.61,2.36-4.19,2.62-5.5.26-7.86,1-7.86,2,0,.69,1.4.78,4.37.43a14.16,14.16,0,0,1,8.72,1.31c2.36,1,4.37,2.18,4.37,2.62s1.31,1.4,2.88,2.18a16.07,16.07,0,0,1,3.23,2.1c.26.34,2.7,1.3,5.41,2.09,4.88,1.4,5,1.4,7.15-.7,1.22-1.13,2.27-2.79,2.27-3.66s-2.18-4.1-4.8-7.07-4.8-5.76-4.8-6.2c0-1,4.19-4.54,5.24-4.54.43,0,2.35,1.4,4.36,3.06s4.1,3,4.71,3,2-1.22,3.15-2.79c1.92-2.62,1.92-2.79.43-3.93a6.63,6.63,0,0,0-2.7-1.13,9.18,9.18,0,0,1-3.15-1.66,17.54,17.54,0,0,0-5.58-2.62c-5-1.31-6.81-3.57-5.5-6.54,1-2,.87-2.44-.61-3.58a24.29,24.29,0,0,0-6-2.27,15.11,15.11,0,0,1-5.24-2,7.28,7.28,0,0,0-3.31-1.74,15,15,0,0,1-5.5-3.58c-3.75-3.75-8.29-4.19-10.82-1.13-1.4,1.83-1.75,1.83-5.32.78-2.1-.61-4.37-1.31-4.89-1.48s-1.4-1.83-1.66-3.84c-.44-2.88-.87-3.49-2.62-3.49-4,0-6.45,5.32-4.71,10,.79,2,.7,2.8-.44,3.84-1.22,1.23-1.48,1.14-3.31-.61-1.57-1.57-1.92-3-2-7.41-.09-5.07-.17-5.42-2.18-5.68A7.84,7.84,0,0,0,253.32,69.25ZM319,118.81c2.09.88,3.05,1.92,3.05,3.06,0,2.27-.09,2.27-4.36.09-1.92-1-3.49-2.36-3.49-3.06C314.15,117.24,315.19,117.24,319,118.81Z"/><path class="cls-1" d="M168.41,70.82c-3,1.66-3.84,2.53-3.66,4.1.43,3.58,1.83,4.45,6.63,3.84,5.76-.61,9.6.44,10,2.88.26,1.83-1.05,2.36-8,3l-2.62.26,3.67,2.53c3.23,2.18,4.19,2.44,7.94,2a54.84,54.84,0,0,0,10-2.53c5.76-2,8.29-1.92,14.66.61.87.34,1.66-.27,2.35-1.75,1-2,.79-2.27-2.09-3.49-2.27-1-3.49-2.36-5.15-5.85a22.86,22.86,0,0,1-2.18-6.19c0-1.75-2-2-3.23-.44a11.08,11.08,0,0,0-1.48,3.49c-.7,3.14-2.62,3.06-6.37-.17-3.06-2.71-5-3.23-6-1.66-.27.52-1.49.7-2.71.35a4.34,4.34,0,0,0-3.4.52c-1.66,1.31-3.67.44-4-1.83C172.34,68.72,172.34,68.72,168.41,70.82Z"/><path class="cls-2" d="M231.72,80.42c-1.22,2.79-.43,4.71,2,5.06q4.71.66,2.09,6.28c-2,4.1-3.84,5.15-7.33,3.93-2.09-.79-3.57-.61-6.8.44C216,98.05,208.16,98,204,95.78A15.55,15.55,0,0,1,200,93.16c-.78-1.31-3.92-1-3.4.26.18.61-.61,2.09-1.83,3.23a6.73,6.73,0,0,0-2.18,4.45c0,2.79-2.1,3.93-3.67,2-4.36-5.41-4.71-5.59-11.52-5.59a43.26,43.26,0,0,1-7.85-.52c-1.57-.61-1.92-3.41-.52-4.28,2-1.22-.35-2.35-3.67-1.83-2.62.44-4.89,0-9.16-1.66s-6.9-2.27-11-2a24.69,24.69,0,0,1-8.38-1c-2.79-1.22-3.14-1-11.86,3.41s-11.52,5-10.65,1.66c.26-1,0-1.66-.79-1.66-1.39,0-1.39.17-.43,4.71,1.83,7.59-3.06,7.85-5.59.26-.78-2.35-1.66-2.88-8.72-5.06-4.28-1.31-8.73-2.44-9.86-2.44a11.27,11.27,0,0,1-3.58-.88c-1.66-1-16.5-2.88-22.78-3.05a15.5,15.5,0,0,1-5-.79c-2.1-1.39-10.3-3-13.79-2.88a27.61,27.61,0,0,0-8.47,2.54,33.37,33.37,0,0,1-5.76,2.35c-.52,0-2.53,1.4-4.53,3.06s-4.37,3.05-5.15,3.05a7,7,0,0,0-3.23,1.31c-1.57,1.22-1.57,1.31,1,3.49a46.11,46.11,0,0,0,7.16,4.45c5.14,2.44,5.75,3,5,5.15-1,2.44-4.45,3.23-7.94,1.74-2.53-1-3.75-1.13-6.11-.34a15.63,15.63,0,0,0-2.88,1.13,28.76,28.76,0,0,0,1.31,3c1.74,3.4,6.81,4.53,11,2.44a13.32,13.32,0,0,1,3.93-1.4c1.66,0,2.44,3.84,1.31,5.94-1.22,2.35-5.24,5.15-7.85,5.5a8,8,0,0,0-3.93,2.79l-1.83,2.44,1.74,3.23a7.55,7.55,0,0,0,4.37,3.93c3,1,3.57,1.22,7,3.66a13.91,13.91,0,0,0,6.89,1.92c2.44.09,4.71.18,5.15.26,1.13,0,.7,4.8-.7,6.64-3.31,4.45.35,3,6.28-2.53a28.8,28.8,0,0,0,5.15-6.2c3.93-8.29,5.5-10,8.9-10.12,2.8,0,3.32,2.18,1.05,5-1.13,1.48-1.48,2.53-.87,2.71,1.83.61,3.58-.7,4.8-3.67,1.74-4.19,4.1-4.71,8.38-1.83,2.09,1.39,6.72,3,11.51,4A109.64,109.64,0,0,1,99.69,139a40.93,40.93,0,0,0,8.2,2.36c2.53.17,3.41.87,5.33,4.19a19.09,19.09,0,0,0,6,6.11c4.45,2.61,6.11,5.32,6.19,10.12,0,2.88.44,3.93,2.18,5.06,1.23.79,2.19,2,2.19,2.71a3.17,3.17,0,0,0,1.74,2.18,3.62,3.62,0,0,1,1.75,3.4c0,2,.52,2.62,2.27,3.05,2.7.7,11.34,8.64,13.09,12,1.48,3,.34,5.93-2.27,5.93a3.12,3.12,0,0,0-2.1.7c-.26.44-.52,6.63-.61,13.79-.17,14,.7,19.46,3.67,22,1,.78,2.88,3.84,4.18,6.72,2.27,4.88,8,11.26,12.22,13.52.87.44,2.71,3.58,4.1,7a46.91,46.91,0,0,0,4.45,8.55l2,2.35-1.66-3.84c-1.83-4.27-1.22-7.06,1.49-7.06,2.18,0,3.49,1,4.45,3.75.87,2.27,8.9,14.75,14.22,22,6,8.29,7.68,11.34,7.68,14.22,0,4.1,3.32,7,15.19,12.92,8.11,4.1,10.21,4.8,13.17,4.45s4.71.26,11.78,4.19A108.78,108.78,0,0,0,252.14,327c3.84,1.13,9.25,6.89,10,10.56.35,1.74.87,2.44,1.66,2.18s2.18.61,3.4,1.83a14.87,14.87,0,0,0,5.85,3.49c4.71,1.4,4.8,1.4,5.41-.17.35-1.05,0-1.22-1.57-.79-1.4.35-2.8-.26-4.8-1.83-4.11-3.49-4.63-5.15-4.54-13.52.09-8.64.7-8-8.38-9.25-6.11-.79-7-1.92-5.58-7.16,3.57-14,3.4-15.1-2-13.27-3.23,1-4.89,3.06-4.89,5.94,0,2.7-3,4.62-7.94,5.06-6.11.61-9.42-1.48-12.74-7.68-2.36-4.45-2.44-5.15-2.27-15.79.09-13.09.52-14,7.59-17.54l4.89-2.45,6.2,1.4c7.67,1.74,8.11,1.74,7.41.09-.69-1.92,2.88-4.8,5.94-4.72,1.48,0,4.8.35,7.41.7,5.76.87,7.25,2.44,9.69,10.56,1.66,5.59,3.75,8.73,5,7.59.26-.35-.53-4.71-1.84-9.68a101.9,101.9,0,0,1-2.27-11.17c0-1.23,2.27-4.54,5.94-8.64,10.73-12.13,11.17-12.92,9.86-16.67s-1.22-6.11.26-8.12c1.05-1.48,1.4-1.57,2.79-.43,1.23,1,1.57,1,1.92.17,1.14-3.49,6.11-8.46,9.34-9.42s3.49-1.14,3.23-4c-.44-4.62,2.44-7.33,11.52-10.82,4.19-1.66,8.55-3,9.51-3,1.57-.08,1.4-.26-.78-1.22-5.33-2.35-7.34-7.76-3.32-8.72,1.57-.44,2.09-.88,1.48-1.49-1.31-1.31-5.06-.08-10,3.32-4.19,2.88-6.81,3.23-6.81,1,0-1.4,7.94-9,11.34-10.73,1.49-.79,6.64-1.75,11.61-2.19a64.13,64.13,0,0,0,14.57-2.79l5.68-2v-7l-5.85.26c-5.5.27-5.93.18-5.93-1.57,0-1,1-2.44,2.7-3.4l2.62-1.66-3.32-1.92c-1.83-1-3.92-2.18-4.62-2.53-1.66-.87-9.6-14.83-9.6-16.93s-1.75-1.83-4.45.79a14.91,14.91,0,0,1-6.11,3c-3.49.79-3.93.7-6.2-1.66-2.53-2.53-3-4-2.09-8,.44-1.92-.18-2.62-4.71-5.59-5.41-3.4-10.39-4.71-14.31-3.66-2.45.61-4.54,5.41-3.58,8.37.35,1,.08,3.84-.44,6.37-1,4.19-.87,4.89.79,7.6,2.27,3.84,2.35,7,0,11.51-1.05,2-2.1,6.37-2.45,10.21-.43,3.67-1.13,7.6-1.74,8.64-1.75,3.23-5.06,2.45-9.78-2.35-4.1-4-4.27-4.37-4.27-9.08s-.09-5-2.36-5.41c-6.11-1.31-8.9-2.35-13.79-5.32a49.72,49.72,0,0,0-8.2-4.1,5.63,5.63,0,0,1-4-4.1c-.79-2.36-1.57-3.15-3.58-3.5s-2.79-1.13-3.49-3.4c-1.4-4.27-.7-6.37,4.1-12a45.88,45.88,0,0,0,5.58-7.86c1.4-3,3.67-4.62,6.46-4.62,2.53,0,6.2-1.83,6.2-3.14,0-.61-1.14-1.31-2.62-1.66-3.84-.87-3.58-3.66.44-4.45a17.57,17.57,0,0,1,5.23,0c1.75.44,2.18.26,2.18-1.22s.61-1.75,2.88-1.83c3.76-.09,8.56-1.92,9.69-3.67.61-1,.52-2-.26-3.58a6.09,6.09,0,0,1-.7-4c.61-2.36-1.48-4.37-4.71-4.37-2.1,0-2.53.35-2.53,2,0,2.53-4.8,9.34-6.55,9.34-1.31,0-3.92-4.19-3.92-6.37a6.42,6.42,0,0,0-1.23-2.88c-1.22-1.66-1.31-1.66-3.31.26-2.79,2.62-4.89,2.53-5.59-.09a6.92,6.92,0,0,0-2.62-3.57c-1.57-1-2-1.92-1.65-3.15s0-2.53-1.4-3.92C236.17,77.62,233,77.71,231.72,80.42ZM254.2,182.78c.78.79-1.14,3-2.1,2.36-1.22-.7-1-3,.35-3A2.48,2.48,0,0,1,254.2,182.78Zm6.1,8.12a22.54,22.54,0,0,1,4.11,4.8c1.48,2.44,2.88,3.31,6.8,4.45,6.9,1.92,7.94,3,5.5,6.1a9,9,0,0,0-1.83,3.49c0,3.23-6.46-1.65-7.16-5.32a2.6,2.6,0,0,0-1.74-2c-2-.34-4.54,3.84-5.85,9.87-1.83,8.29-5,4.8-4.28-4.8.27-3.32.7-4.19,3.06-5.68a9.1,9.1,0,0,0,2.88-2.35c0-1.14-5.67-2.45-10.56-2.45-2.79,0-5.24-.34-5.5-.78-.78-1.22,7.42-6.9,10-7A7.81,7.81,0,0,1,260.3,190.9Zm31.59,3.4a3.19,3.19,0,0,1-1.48,2.18c-1.92,1.14-3.84-.44-3-2.53C288.05,192.2,291.89,192.55,291.89,194.3Zm-10.21,5.06a1.84,1.84,0,0,1-1.57,1.57,1.86,1.86,0,0,1-1.57-1.57c-.17-1.05.26-1.48,1.57-1.48S281.86,198.31,281.68,199.36Zm9.78,9.25c0,.7-2.1,2.09-4.54,3.32a92.52,92.52,0,0,0-9.16,4.88c-5,3.15-6.37,3.49-6.37,1.66,0-1.39,2.53-3.23,10.91-7.68C288.75,207.39,291.46,206.69,291.46,208.61Z"/><path class="cls-1" d="M712,84.78c1.4,1.66,3.84,1.83,3.4.26A3.29,3.29,0,0,0,713,83.73C711.12,83.47,711,83.56,712,84.78Z"/><path class="cls-1" d="M222.61,88.18c-.7,1-.53,1.57.69,2.71,1.57,1.4,1.84,1.4,4.54.09l2.88-1.49-2.88-1.22C224.26,86.79,223.83,86.79,222.61,88.18Z"/><path class="cls-1" d="M680.23,88.88a1.2,1.2,0,0,0-.09,1.4c.7.7,3.14-.44,3.14-1.49S680.92,87.66,680.23,88.88Z"/><path class="cls-1" d="M290.41,97.26a1.78,1.78,0,0,0,1.66-.09c.35-.26-.18-.52-1.14-.43S289.71,97,290.41,97.26Z"/><path class="cls-1" d="M470.79,106c-2,.26-3.84,1-4.54,1.92a10,10,0,0,1-3.75,2.7c-3.14,1.31-3.23,1.66-.79,4.28,1.66,1.74,2.53,2,6.37,1.66,4.54-.44,15.36-4.72,15.36-6.11a8.12,8.12,0,0,0-1.39-2.88C480.56,105.29,479.43,105.11,470.79,106Z"/><path class="cls-1" d="M262,113.4a39.28,39.28,0,0,1-.35,5.5c-.43,2.62,2.45,2.62,5.59,0,1.66-1.39,3.23-2.09,4.1-1.66.79.27,2.18.79,3.14,1.05l1.75.44-1.75-2a26.52,26.52,0,0,0-6.54-4.19c-2.62-1.22-5.07-2.36-5.33-2.53S262.05,111.4,262,113.4Z"/><path class="cls-1" d="M1.21,120.65c1.92,1.48,3.67,1.65,4.37.52.61-1-1.49-1.83-4.11-1.83C-.45,119.43-.45,119.43,1.21,120.65Z"/><path class="cls-1" d="M268.77,125.45a.86.86,0,0,0,.78.87,1.88,1.88,0,0,0,1.4-.87c.26-.53-.09-.88-.78-.88S268.77,124.92,268.77,125.45Z"/><path class="cls-1" d="M279.24,126.41c0,.43.44.61.87.35s.88-.7.88-1-.35-.35-.88-.35A1,1,0,0,0,279.24,126.41Z"/><path class="cls-1" d="M512.85,147.18c-2.27,3.92-1.13,10.21,2.18,11.95,2,1.05,4.19,4.19,4.19,5.93a32.72,32.72,0,0,1-2.62,3.67l-2.7,3.32,2.27,1.13c2.53,1.4,2.88,3.32.69,4.54-1.13.61-.08.7,3.67.43,7.85-.69,8.81-1,9.86-3.4.87-1.83.79-2.27-.78-3.05-1-.53-2.62-3.06-3.76-5.59a38.15,38.15,0,0,0-5.32-8.29c-2.88-3.14-3.23-3.92-2.36-5.67.88-1.92.7-2.18-1.31-2.71-1.74-.43-2.09-1-1.74-2.61C515.64,144,514.68,144.12,512.85,147.18Z"/><path class="cls-1" d="M53.48,147.7c-1.3,1.13-2,2.18-1.48,2.18s1.83-1,3-2.18C57.59,144.91,56.63,144.91,53.48,147.7Z"/><path class="cls-1" d="M557.27,154.94c-.35,1.14-.44,2.27-.18,2.53.88,1,1.58-.35,1.23-2.53l-.35-2Z"/><path class="cls-1" d="M502.64,161.66a4.8,4.8,0,0,1-1.66,2.79c-1.57,1.49-3.49,9-2.27,9,1.49,0,7.51-3.75,8.29-5.15,1.31-2.61,1.05-6.8-.52-7.41C504.21,160,502.64,160.27,502.64,161.66Z"/><path class="cls-1" d="M968.73,168.56c-.79,1.92-.79,3.66-.18,6.54.53,2.18,1.14,5.41,1.4,7.16.43,2.61.78,3.14,2.09,2.79,1.57-.44,1.57-.61.44-3.4a46.84,46.84,0,0,1-2-9.34C969.86,166.29,969.77,166.11,968.73,168.56Z"/><path class="cls-1" d="M273.13,169.86a2.05,2.05,0,0,0,.87,1.4c.53.26.88.18.88-.35a1.77,1.77,0,0,0-.88-1.39C273.57,169.25,273.13,169.34,273.13,169.86Z"/><path class="cls-1" d="M347.66,186c-2.88,2.53-3.23,3.23-2.45,4.62,1,1.57,2.62,1.75,8.64,1.05,2.36-.35,2.62-.09,2.88,2.1.26,2.44.35,2.44,2,1,3.58-3.23,1-8.21-4.36-8.21-2.45,0-2.88-.26-2.45-1.74C352.54,182.34,351.58,182.61,347.66,186Z"/><path class="cls-1" d="M330.73,185.57c0,.88,2.18,1.83,4.19,1.83,1.31-.08,1.22-.26-.18-1.3C332.82,184.61,330.73,184.35,330.73,185.57Z"/><path class="cls-1" d="M970.38,196.13a1,1,0,0,0,1,.87c.44,0,.62-.43.35-.87s-.69-.87-1-.87S970.38,195.61,970.38,196.13Z"/><path class="cls-1" d="M328.11,204.86l-3.05,2.7,3.66-2c2.09-1.14,3.75-2.27,3.75-2.71C332.47,201.63,331.08,202.24,328.11,204.86Z"/><path class="cls-1" d="M966.63,203.72c-.35.27-.61,1.66-.61,3a4.83,4.83,0,0,1-2.27,4c-1.83,1.31-2.09,2.1-1.66,4,.61,2.18,3.06,3.4,3.06,1.48,0-.52,1-.87,2.09-.87,2.62,0,10.3-5.06,9.86-6.46a2.9,2.9,0,0,0-2.35-1.22,13.76,13.76,0,0,1-4.8-2.44C968.38,204.07,966.89,203.37,966.63,203.72Z"/><path class="cls-1" d="M961.22,225.54c-.87,5.15-2,7.24-3.84,7.24-1.22,0-1.66.44-1.31,1.31.79,2-1.39,4.1-3.58,3.58-1.39-.35-2.35.17-3.83,2.09a7.22,7.22,0,0,1-5.42,3.15,25.22,25.22,0,0,0-7.85,3.49c-2.36,1.65-4.8,3-5.58,3-1.58,0-1.58.7,0,3.49a13.59,13.59,0,0,1,1.3,5.07c0,3.84,1.58,3.31,4.19-1.49,1.49-2.62,2.8-3.84,4.63-4.19,3.14-.61,4.1-2,2.18-3.05-.79-.44-1.4-1.14-1.4-1.57,0-1.57,3.84-.87,5.85,1s2,1.83,3.75.26c1.14-1,3.58-1.75,6.55-2,4.36-.35,4.88-.61,5.32-2.71.26-1.22,1.4-5.32,2.62-9.07,3-9.6,2.7-12.83-1-12.83C962.09,222.31,961.66,222.92,961.22,225.54Z"/><path class="cls-1" d="M555,224.41c0,.78.44,1.39.87,1.39a.81.81,0,0,0,.88-.78,1.65,1.65,0,0,0-.88-1.4C555.44,223.36,555,223.71,555,224.41Z"/><path class="cls-1" d="M600.64,231.47c.61,1.23-.17,2.53-2.44,3.76-1,.52-1.31,1-.79,1a7.66,7.66,0,0,0,3.06-1.65c1.74-1.49,1.92-1.92.87-2.88C600.64,231.13,600.38,231,600.64,231.47Z"/><path class="cls-1" d="M570.36,234.35c-.26.44.52,1.23,1.74,1.84,1.92.87,2.19.78,1.92-.53C573.67,234,571.14,233,570.36,234.35Z"/><path class="cls-1" d="M629.61,244.13a1.06,1.06,0,0,0,1.4.43c1.22-.78,1-1.31-.61-1.31C629.7,243.25,629.35,243.69,629.61,244.13Z"/><path class="cls-1" d="M174.09,272.93c-.44,1.48,0,2.53,2.09,4.71a22.88,22.88,0,0,1,3.93,5.84,13.5,13.5,0,0,0,2.7,4.28c1.22,1.05,1.31.87.44-1.4a22.56,22.56,0,0,0-1.83-3.57,56.48,56.48,0,0,1-3.84-6.46C175.05,271.53,174.61,271.18,174.09,272.93Z"/><path class="cls-1" d="M922.82,279.12c-1,1.48.09,1.83,1.31.35.7-.79.7-1.31.18-1.31A1.92,1.92,0,0,0,922.82,279.12Z"/><path class="cls-1" d="M902,289.94a6.91,6.91,0,0,0-.44,2.45c0,.61.44.08.87-1.05s.7-2.27.44-2.45S902.32,289.16,902,289.94Z"/><path class="cls-1" d="M268.94,293.26c-2.61,1.48-1.48,2.53,2,1.83,2.18-.35,4.28.26,9.08,2.62,3.4,1.74,6.72,3.93,7.24,4.89,1.22,1.83,4.62,2.26,6.81.87,1.74-1.22,0-2.53-9.17-7C276.88,292.56,271.91,291.6,268.94,293.26Z"/><path class="cls-1" d="M45.37,304.69c0,1.48,1.22,2.53,2,1.75s-.27-3-1.23-3C45.72,303.47,45.37,304,45.37,304.69Z"/><path class="cls-1" d="M301.93,308.27c-1,1.13-.52,1.31,2.88,1.31,5,0,7.42-.79,5.67-1.84C308.56,306.52,303.06,306.87,301.93,308.27Z"/><path class="cls-1" d="M285.79,311.32a1.05,1.05,0,0,0,1.39.44c1.22-.79,1-1.31-.61-1.31C285.87,310.45,285.52,310.89,285.79,311.32Z"/><path class="cls-1" d="M902.06,311.06a29,29,0,0,0-1,5.59c-.53,4.36-.35,5.23,1.22,6.8a5.87,5.87,0,0,0,3.23,1.83c1.13,0,1-.43-.44-2.53-2.18-3-2.27-4.27-.61-6.1a6.41,6.41,0,0,0,1.48-5.15C905.81,310.36,902.67,310,902.06,311.06Z"/><path class="cls-1" d="M911,330.43a2,2,0,0,0,.88,1.4c.52.26.87.17.87-.35a1.8,1.8,0,0,0-.87-1.4C911.48,329.82,911,329.91,911,330.43Z"/><path class="cls-2" d="M298.7,336.89a10.72,10.72,0,0,0-5.5,6c-1,2.36-2.09,4.19-2.53,4.19a8.69,8.69,0,0,1-3-1.74c-2.88-2.27-4.89-2.36-2.88-.09,2.26,2.44,3.92,7.77,4,12.3,0,4-1.22,7-6.28,15a34,34,0,0,0-3.49,7.94c-1,3.58-.88,4.45.43,6.64,1.4,2.35,1.4,2.53-.61,4.45l-2.09,1.92,3.05,7.06c1.75,3.93,4.71,11.7,6.72,17.2a100.84,100.84,0,0,0,5,12,51.53,51.53,0,0,0,7,6.19c3.05,2.36,6.89,5.5,8.55,7.07,2.79,2.62,2.88,2.88,2.35,7.68-.26,2.71-1.13,14.4-1.83,25.92-1.48,22.78-2.18,27.14-5.5,34.47-2.18,4.71-3.14,12-2.88,21.82,0,2.18.18,7.5.27,11.86.26,9-.7,11.35-4.28,10.39-1.74-.44-1.4.17,1.83,3.32,4.37,4.1,5,6.28,2.27,7.15-1.39.44-1.74,1.31-1.74,4.28a46.38,46.38,0,0,1-.53,6.54c-.43,2.1-.26,2.71.79,2.71.78,0,2.88,1.22,4.62,2.79l3.14,2.79,1.66-2.18a38.61,38.61,0,0,0,3.84-6.46,49.57,49.57,0,0,1,6.81-11,19.08,19.08,0,0,0,2.36-3.67,9,9,0,0,0-2.19-2.7c-3.22-3.23-2.88-6.81.88-10.65,1.65-1.66,3.05-3.84,3.05-4.89a5.81,5.81,0,0,1,1.4-3.4,2.45,2.45,0,0,0,.43-3.32c-1.74-3.14-1.13-5.23,1.49-5.84,4.19-.87,4.45-1.05,6.63-4.63,1.92-3.05,2.79-3.58,7.24-4.45,10.21-2.09,12.22-5.15,7.68-11.34a11.1,11.1,0,0,1-2.18-4.63c0-1.74.61-1.74,5.67.35,5.85,2.27,11.52-2.88,18.68-17.28,3.31-6.63,3.75-8,3.31-11.6-.43-3.84-.26-4.37,2.27-6.72,4.28-4.1,13.79-9.69,18-10.65,2.09-.44,4.19-1.31,4.62-2,4.11-6.1,6-13,6.72-24.43.61-9.51.79-10.3,3.23-13.09,5.33-6.11,8.47-12,8.9-16.84l.35-4.54-5.84-4.45c-5.24-3.93-6.55-4.45-11.7-5.06-6.54-.61-7.85-1.14-12.91-5.24-2-1.66-4.1-3-4.63-3s-2.44,1.23-4.1,2.71c-2.44,2.09-3.67,2.53-6.2,2.36-4.27-.35-5-3-1.13-4.28,1.48-.52,2.7-1.57,2.7-2.27,0-.87-1.3-.35-4.27,1.83-4.71,3.49-6.2,3.84-6.2,1.57,0-1.74,1.84-4.71,5.15-8.29,1.83-2,2-2.7,1.22-4a25.35,25.35,0,0,1-2-5.24c-1.14-4.36-5.85-7.85-11.52-8.55a22.25,22.25,0,0,1-5.94-1.57c-2.61-1.39-14.83-13.79-14.83-15.18,0-.61-2.1-1-5.5-1A34.06,34.06,0,0,1,318,337.41c-8.29-2.88-9.17-2.7-10.39,2.88-.35,1.66-1.05,2.45-2.18,2.45-2.18,0-3.75-3.06-3.14-5.76a4.91,4.91,0,0,0,.35-2A39.61,39.61,0,0,0,298.7,336.89Z"/><path class="cls-2" d="M834.25,345.88a12.15,12.15,0,0,0,1.66,4.19,29.07,29.07,0,0,1,2.7,6.63c1.66,6.46,8.73,16.06,8.73,12,0-3.23-3.14-11.09-5.67-14.14a47.78,47.78,0,0,1-4.19-6.28C835.73,344.92,834.25,343.78,834.25,345.88Z"/><path class="cls-1" d="M775.35,348c-.7,2.27.26,5.24,1.74,5.24,1.92,0,2.44-1.66,1.31-4.45C777.18,345.79,776.13,345.53,775.35,348Z"/><path class="cls-1" d="M911.31,347.45c-3.76,1.4-4.54,2.27-1.84,2.27a3.22,3.22,0,0,1,3.14,2.18c1.31,2.71,2.36,2.79,4.19,0C919.68,347.45,917.06,345.36,911.31,347.45Z"/><path class="cls-1" d="M882.6,360.89c-8.56,8-13.09,11.78-15.28,12.57-1.57.61-1.74,1.22-1.31,3.49.7,3.66,4.54,10,6.9,11.6,1.05.61,4.45,1.31,7.59,1.49l5.67.26.53-3.49c.26-1.92,1.92-5.94,3.75-9,3.49-5.94,3.58-8.12.17-10.82l-1.83-1.49,3.06-3.14,3-3.14-2.44-2.18a10.69,10.69,0,0,0-3.06-2.1C889.05,355,886,357.66,882.6,360.89Z"/><path class="cls-2" d="M827,361.33c.35.61,2.09,3.14,3.92,5.75s3.32,5.24,3.32,5.76,1.57,3.15,3.49,5.68,3.49,5.15,3.49,5.76c0,1.13,9.34,11.69,10.39,11.69.52,0,3.57-7.77,3.57-9.08,0-.26-.61-.52-1.48-.52-2.09,0-7.07-4.1-8.73-7.24-1.92-3.84-14.83-17.8-16.93-18.33C826.92,360.54,826.57,360.71,827,361.33Z"/><path class="cls-1" d="M923.26,376.07c0,1.66.18,1.75.87.7,1.14-1.66,1.14-2.62,0-2.62C923.7,374.15,923.26,375,923.26,376.07Z"/><path class="cls-1" d="M898.48,381.31c-.88,2.7-1.31,8.55-.88,9.86s.88.87,1.75-1.31c1.75-4.1,3.14-3.23,5.93,3.49,1.23,2.88,1.23,3,1.31.7a8.23,8.23,0,0,0-2.09-4.89,9.37,9.37,0,0,1-2.18-4.71C902.32,382.09,899,379.48,898.48,381.31Z"/><path class="cls-1" d="M939.23,383.4c2.44,1.31,3,2.45,1.48,3.41-1.74,1.13-.78,2.61,1.75,2.7s2.62,0,1.31-1.92a8.56,8.56,0,0,1-1.31-3.31c0-1.31-1.83-2.27-4.19-2.27C937.31,382.09,937.57,382.53,939.23,383.4Z"/><path class="cls-2" d="M950.57,388.38a10.42,10.42,0,0,0-2.87,2.35c0,.27,1.74,1.57,3.92,3,4.89,3,7.07,6.72,5.59,9.34-1.14,2.18-1.57,1.74,4.71,4.1,6.46,2.44,7.24,2.36,10.38-.26,3.84-3.23,5.94-2.79,10.48,2.18,2.18,2.36,4.62,4.36,5.49,4.36,1.23,0,1.14-.43-.69-2.62a18,18,0,0,1-3.23-5.84,17.35,17.35,0,0,0-2.36-4.8c-3.14-3.58-23.74-13.88-27.49-13.7A11,11,0,0,0,950.57,388.38Z"/><path class="cls-1" d="M926.66,389.08c-.87.52-.61.78,1.23.78,2.53,0,3.05-.44,1.22-1.13A3,3,0,0,0,926.66,389.08Z"/><path class="cls-1" d="M1000.93,389.77a2,2,0,0,0,.87,1.4c.52.26.87.17.87-.35a1.8,1.8,0,0,0-.87-1.4C1001.36,389.16,1000.93,389.25,1000.93,389.77Z"/><path class="cls-1" d="M993.77,395.18c-3.58,1.84-4.36,3.41-1.74,3.41,1.57,0,6.1-4,5.32-4.71C997.17,393.7,995.52,394.31,993.77,395.18Z"/><path class="cls-1" d="M858.07,402.51c1.84,1.05,18.24,4.89,20.69,4.8.26,0-.88-.87-2.36-1.83a23.21,23.21,0,0,0-8.29-2.53c-3.06-.44-7.07-1.05-9-1.31l-3.49-.52Z"/><path class="cls-1" d="M1024.49,407.31a1,1,0,0,0,1,.88c.44,0,.61-.44.35-.88s-.7-.87-1-.87S1024.49,406.79,1024.49,407.31Z"/><path class="cls-1" d="M916.72,409c-3.76,2.27-6.37,5.33-4.63,5.33,1.92,0,8.73-5.15,8.12-6.11S919.77,407.05,916.72,409Z"/><path class="cls-1" d="M900.14,409.93a1.85,1.85,0,0,0,1.39.87.86.86,0,0,0,.79-.87c0-.52-.61-.87-1.4-.87S899.87,409.41,900.14,409.93Z"/><path class="cls-1" d="M935.39,422.41c-3.23,4-4.71,6.81-4.71,9.34,0,1.92-.44,2.18-3.84,2.44-2.88.26-4.54-.17-6.37-1.57l-2.53-1.83-3.49,3.31c-1.92,1.92-3.41,4.11-3.41,5.24,0,1.92-.78,2.36-3.23,2.1-.61-.09-1.13.69-1.13,1.74,0,3-5.41,7.33-14.66,11.69-8.46,4-13.26,7.6-13.26,9.78a16.56,16.56,0,0,0,1.74,4.62c2.1,4.1,2.18,4.72.35,6.55-1.13,1.13-1.22,1.83-.44,3.31a57.28,57.28,0,0,1,5.06,19.29c.79,10.21,3.67,12.3,11.09,7.94a31.11,31.11,0,0,1,8.29-3.05,24.41,24.41,0,0,0,8.2-3.41c3.84-2.7,10.82-4.45,18-4.45a18.18,18.18,0,0,1,14,7.07,15.65,15.65,0,0,0,2.79,3.4c.26,0,1.4-1.57,2.45-3.57,2.7-4.72,5-4.37,4.71.69-.09,2.88.17,3.67,1.57,4a2.34,2.34,0,0,1,1.66,2.09c0,.88,1.57,4,3.49,6.9,3.75,5.93,5.58,6.8,11.34,5.32,3.06-.87,3.67-.78,5.5,1l2,1.92,2.09-2.18a14.13,14.13,0,0,1,4.89-3.06,4.33,4.33,0,0,0,3.4-3.57c.35-1.49,2.1-6.64,3.93-11.52a83.06,83.06,0,0,0,4.71-18.76c2-14.32,2-14.23-2.36-17.37-2.09-1.4-5.58-5.32-7.85-8.64s-4.71-6.46-5.67-7.07c-2.44-1.48-5.32-7.94-6.37-14.31-.53-3-1.49-6.2-2.1-6.89a32,32,0,0,1-3.31-6.11c-2.36-5.33-2.36-5.41-4.45,5-1.49,7.51-4.28,14.05-6.11,14.75-1.66.61-12.13-6.63-14.23-9.86-1.48-2.18-1.3-3.32,1.14-10.91.61-1.83-1.48-3-6.63-3.66C937.92,419.62,937.49,419.79,935.39,422.41Z"/><path class="cls-1" d="M678.48,429a21.1,21.1,0,0,1-6.11,6c-5.93,3.92-6.54,5-6.54,11.52-.09,3.31-.61,6.72-1.31,7.94-2.18,3.84-1.22,12.39,1.83,15.62.87,1.05,1.57,1.05,3.75.09,3.06-1.23,3.58-2.62,7.51-19.81,1.22-5.41,2.62-10.82,3-12,1-2.53,1.05-8.81.18-11.08C680.31,426,679.88,426.25,678.48,429Z"/><path class="cls-1" d="M1038,455.31c1.65,1.83,3.92,2.36,3.92.87,0-1-2.88-2.61-4.45-2.61C1036.79,453.57,1037.06,454.18,1038,455.31Z"/><path class="cls-1" d="M1067.42,522.94c-1,3.58-.87,4.1.7,5.67a5.81,5.81,0,0,1,1.75,2.62.93.93,0,0,0,.87.87c.52,0,.87-.52.87-1.22s1.22-2.62,2.62-4.45c2.88-3.66,3.23-4.8,1.4-4.8a3.85,3.85,0,0,1-2.27-1.31,4.49,4.49,0,0,0-3-1.31C1068.91,519,1068.3,519.8,1067.42,522.94Z"/><path class="cls-1" d="M977.37,535.16a36.23,36.23,0,0,0,1.22,3.49c1.57,3.66,5.23,4.36,6.11,1.05,1.13-4.37.78-5-3.41-5C979.11,534.72,977.37,534.9,977.37,535.16Z"/><path class="cls-1" d="M1060.27,536.47a6.26,6.26,0,0,0-1.75,2.62c0,.52-3,4.1-6.54,7.94s-6.55,7.24-6.55,7.68,1.57,1.13,3.58,1.74c4.19,1.31,5.67.44,6.46-3.66a22.83,22.83,0,0,1,3.14-6.46,21,21,0,0,0,2.53-4.19,10.79,10.79,0,0,1,1.66-2.79c1.66-2,1.66-4.63,0-4.63A6.13,6.13,0,0,0,1060.27,536.47Z"/><path class="cls-1" d="M740.53,568.32c.61,1.48,2.61,1.74,3.31.52.26-.43-.08-1-.87-1.31C740.79,566.66,740,566.92,740.53,568.32Z"/><path class="cls-1" d="M337.71,580.19c0,.43.44.61.87.35s.87-.7.87-1-.35-.35-.87-.35A1,1,0,0,0,337.71,580.19Z"/><path class="cls-1" d="M296.69,584.46a1,1,0,0,0,1,.88c.44,0,.61-.44.35-.88s-.7-.87-1-.87S296.69,583.94,296.69,584.46Z"/><path class="cls-1" d="M310.57,590.14c-1.4,2.88-1.4,3.05.17,3.05a10.6,10.6,0,0,1,3.84,1c1.66.78,2.45.78,3.23,0s.35-1.75-1.92-4.1a20.61,20.61,0,0,0-3.4-3.06C312.14,587.17,311.35,588.48,310.57,590.14Z"/><path class="cls-1" d="M409.62,591.27c.78,1.31,4.18,2,3.75.79a2.66,2.66,0,0,0-2.27-1.31C410,590.57,409.27,590.83,409.62,591.27Z"/></g></g></svg>